<?xml version="1.0"?>
<svg xmlns="http://www.w3.org/2000/svg" id="Layer_3" data-name="Layer 3" viewBox="0 0 64 64" width="512" height="512"><path d="M62.84,61.458,57,52.406V33h5a1,1,0,0,0,.707-1.707l-30-30a1,1,0,0,0-1.414,0l-30,30A1,1,0,0,0,2,33H7V57H6a1,1,0,0,0-1,1v4a1,1,0,0,0,1,1H62a1,1,0,0,0,.84-1.542ZM39.451,33.106,9,40.719v-8.3L20.354,21.06l1.8.258-.09.033,3,8a1,1,0,0,0,.807.641A1.134,1.134,0,0,0,26,30a1,1,0,0,0,.813-.419l4.925-6.894,2.59.37,2.735,7.294a1,1,0,0,0,.807.641A1.134,1.134,0,0,0,38,31a1,1,0,0,0,.813-.419l4.462-6.246,4.254.608L55,32.414V49.306L42.84,30.458a1.038,1.038,0,0,0-1.68,0Zm-10.958,4.8-.985,3.939-2.547-3.056ZM17.559,40.641l-1.051,4.206-2.72-3.263Zm4.562-21.348L32,9.414,45.172,22.586Zm18.924,4.723-2.768,3.876-1.692-4.513ZM29.508,22.368l-3.231,4.524L24.3,21.625ZM32,3.414,59.586,31H56.414L32.707,7.293a1,1,0,0,0-1.414,0L7.586,31H4.414ZM9,42.781l2.633-.659,4.6,5.518a1,1,0,0,0,1.739-.4l1.788-7.152,3.048-.762,4.425,5.311a1,1,0,0,0,1.739-.4l1.721-6.885,7.175-1.794L24,57.055V57H9ZM21.455,61H7V59H22.745Zm26.084,0H36.461L42,46.759ZM44.863,48.6l6.87,7.494-2.5,3.747ZM50.868,61l2.964-4.445a1,1,0,0,0-.095-1.231L42.744,43.332a1.045,1.045,0,0,0-1.676.306L34.316,61H23.835L42,32.845,55,52.994V53h0l5.161,8Z"/></svg>
