<svg id="Capa_1" enable-background="new 0 0 512 512" height="512" viewBox="0 0 512 512" width="512" xmlns="http://www.w3.org/2000/svg"><g><g><path clip-rule="evenodd" d="m443.579 271.889h-375.186c10.091 49.295 39.287 91.843 79.425 119.51 3.685-4.706 7.795-9.269 12.245-13.606 19.275 18.737 32.088 41.471 32.088 63.525 0-22.054 12.812-44.788 32.059-63.525 18.056 17.575 30.444 38.665 31.918 59.386 1.474-20.721 13.889-41.811 31.946-59.386 18.056 17.575 30.444 38.665 31.918 59.386 1.474-20.721 13.861-41.811 31.917-59.386 4.45 4.337 8.589 8.901 12.274 13.606 40.137-27.667 69.305-70.215 79.396-119.51z" fill="#a0c8ff" fill-rule="evenodd"/></g><g><path clip-rule="evenodd" d="m147.818 391.398c-12.245 15.619-19.814 32.967-19.814 49.918h64.147c0-22.054-12.812-44.788-32.088-63.525-4.45 4.338-8.56 8.902-12.245 13.607z" fill="#ff7b79" fill-rule="evenodd"/></g><g><path clip-rule="evenodd" d="m224.21 377.792c-19.247 18.737-32.059 41.471-32.059 63.525h63.835c0-1.389.057-2.75.142-4.139-1.474-20.721-13.862-41.811-31.918-59.386z" fill="#ff7b79" fill-rule="evenodd"/></g><g><path clip-rule="evenodd" d="m288.073 377.792c-18.056 17.575-30.472 38.665-31.946 59.386.113 1.389.17 2.75.17 4.139h63.552c0-1.389.028-2.75.142-4.139-1.474-20.721-13.861-41.811-31.918-59.386z" fill="#ff7b79" fill-rule="evenodd"/></g><g><path clip-rule="evenodd" d="m351.908 377.792c-18.056 17.575-30.444 38.665-31.917 59.386.085 1.389.142 2.75.142 4.139h63.863c0-16.923-7.597-34.299-19.814-49.918-3.685-4.706-7.823-9.27-12.274-13.607z" fill="#ff7b79" fill-rule="evenodd"/></g><g><path clip-rule="evenodd" d="m319.849 441.317h-63.552-.312-63.835-64.147-66.413c-16.157 0-29.366 13.21-29.366 29.339v19.106h447.525v-19.106c0-16.129-13.209-29.339-29.338-29.339h-66.414-63.863z" fill="#89a7bc" fill-rule="evenodd"/></g><g><path clip-rule="evenodd" d="m447.434 207.088h-276.656-59.696-46.544v26.589c0 13.068 1.332 25.852 3.855 38.211h375.186c2.551-12.359 3.855-25.143 3.855-38.211z" fill="#dfedff" fill-rule="evenodd"/></g><g><path clip-rule="evenodd" d="m59.804 68.671 51.278 138.417h59.696l-69.164-155.85c-5.046-11.395-18.113-16.98-29.621-12.189-11.481 4.791-16.526 17.943-12.189 29.622z" fill="#ffcd69" fill-rule="evenodd"/></g><g><path d="m451.531 281.889h18.07c23.379 0 42.399-19.021 42.399-42.4 0-23.38-19.021-42.4-42.399-42.4h-22.166-270.154l-66.523-149.9c-7.36-16.623-26.076-24.255-42.617-17.369-16.232 6.774-24.011 25.368-17.714 42.325l46.286 124.943h-32.176-22.138c-23.378 0-42.399 19.021-42.399 42.401 0 23.379 19.021 42.4 42.399 42.4h18.045c10.936 43.993 36.64 83.527 73.438 111.712-8.171 12.373-13.327 25.168-15.14 37.716h-57.152c-21.707 0-39.366 17.647-39.366 39.339v19.105c0 5.523 4.478 10 10 10h447.524c5.522 0 10-4.477 10-10v-19.105c0-21.691-17.646-39.339-39.338-39.339h-57.155c-1.815-12.541-6.975-25.331-15.151-37.706 36.794-28.179 62.494-67.718 73.427-111.722zm40.469-42.4c0 12.352-10.048 22.4-22.399 22.4h-14.189c1.323-9.281 2.023-18.702 2.023-28.211v-16.589h12.166c12.351-.001 22.399 10.048 22.399 22.4zm-422.822-174.299c-2.547-6.86.381-14.289 6.657-16.909 6.412-2.668 13.716.412 16.639 7.013l62.926 141.794h-37.36zm-49.178 174.299c0-12.352 10.048-22.4 22.399-22.4h12.138v16.589c0 9.509.7 18.93 2.024 28.211h-14.162c-12.351 0-22.399-10.049-22.399-22.4zm61.131 42.4h129.955c5.522 0 10-4.477 10-10s-4.478-10-10-10h-134.313c-1.472-9.262-2.236-18.689-2.236-28.211v-16.589h362.897v16.589c0 9.523-.764 18.95-2.234 28.211h-134.314c-5.522 0-10 4.477-10 10s4.478 10 10 10h129.959c-10.495 37.754-33.148 71.57-65.028 95.942-2.194-2.432-4.501-4.837-6.933-7.204-3.883-3.779-10.068-3.779-13.951 0-10.644 10.362-19.037 21.406-24.942 32.651-5.905-11.244-14.298-22.288-24.942-32.651-3.883-3.779-10.068-3.779-13.951 0-10.649 10.367-19.046 21.411-24.956 32.652-5.91-11.24-14.307-22.285-24.956-32.652-3.883-3.779-10.068-3.779-13.951 0-10.732 10.448-19.173 21.59-25.085 32.931-5.919-11.346-14.369-22.489-25.115-32.936-3.886-3.776-10.066-3.772-13.946.005-2.427 2.363-4.73 4.764-6.921 7.192-31.884-24.378-54.538-58.189-65.037-95.93zm227.943 149.428h-42.028c2.581-12.755 9.865-26.323 21.026-39.026 11.149 12.695 18.426 26.263 21.002 39.026zm-63.837 0h-42.028c2.577-12.763 9.853-26.331 21.002-39.026 11.161 12.703 18.445 26.271 21.026 39.026zm-85.169-39.032c11.16 12.691 18.445 26.262 21.023 39.031h-42.029c2.578-12.764 9.856-26.334 21.006-39.031zm309.68 78.371v9.105h-427.524v-9.105c0-10.664 8.688-19.339 19.366-19.339h388.82c10.663 0 19.338 8.675 19.338 19.339zm-138.84-39.339c2.576-12.763 9.852-26.332 21.001-39.026 11.161 12.703 18.445 26.271 21.026 39.026z"/><path d="m217.606 153.665c1.945 2.778 5.048 4.265 8.2 4.265 1.98 0 3.981-.587 5.728-1.81 4.523-3.168 5.623-9.403 2.455-13.928-5.85-8.353-5.85-23.006.007-31.369 10.649-15.246 10.646-39.107-.007-54.322-3.168-4.523-9.403-5.624-13.927-2.456-4.524 3.167-5.624 9.403-2.456 13.927 5.847 8.35 5.844 23.022 0 31.389-10.662 15.225-10.662 39.078 0 54.304z"/><path d="m291.05 113.667c1.945 2.779 5.047 4.266 8.2 4.266 1.98 0 3.981-.587 5.727-1.809 4.524-3.168 5.624-9.403 2.456-13.927-5.849-8.354-5.849-23.008.006-31.37 10.651-15.247 10.648-39.108-.006-54.323-3.167-4.524-9.402-5.623-13.928-2.456-4.523 3.168-5.623 9.403-2.455 13.927 5.848 8.351 5.845 23.022 0 31.389-10.66 15.225-10.66 39.078 0 54.303z"/><path d="m364.522 153.664c1.945 2.778 5.047 4.265 8.2 4.265 1.98 0 3.981-.587 5.727-1.81 4.524-3.167 5.624-9.403 2.456-13.927-5.849-8.353-5.849-23.007.007-31.369 10.65-15.247 10.647-39.108-.007-54.323-3.168-4.524-9.402-5.623-13.928-2.456-4.523 3.168-5.623 9.403-2.455 13.927 5.848 8.351 5.845 23.022 0 31.389-10.66 15.226-10.66 39.079 0 54.304z"/><path d="m255.985 281.889h.058c5.522 0 9.972-4.477 9.972-10s-4.507-10-10.029-10-10 4.477-10 10 4.477 10 9.999 10z"/></g></g></svg>