<svg id="Capa_1" enable-background="new 0 0 512 512" height="512" viewBox="0 0 512 512" width="512" xmlns="http://www.w3.org/2000/svg"><g><path d="m84.531 342.2c-.818 1.224 50.564-75.606 53.268-79.65-63.966-29.78-137.799 17.189-137.799 87.989 0 53.486 43.514 97 97 97 48.386 0 88.607-35.611 95.839-82h-95.82c-11.959 0-19.162-13.374-12.488-23.339z"/><path d="m192.839 335.539c-3.446-22.103-14.383-41.756-30.124-56.279l-37.638 56.279z"/><path d="m395.024 254.39 33.075 91.026c2.829 7.787-1.189 16.392-8.976 19.222-7.787 2.828-16.392-1.19-19.222-8.976l-33.066-91.003c-30.276 16.695-50.835 48.93-50.835 85.88 0 54.037 43.963 98 98 98s98-43.963 98-98c0-61.576-56.402-108.083-116.976-96.149z"/><path d="m329.238 73.338c-2.155-5.93-7.79-9.877-14.099-9.877h-46.188c-8.284 0-15 6.716-15 15s6.716 15 15 15h35.68l13.63 37.513-66.493 99.565h-38.998c-9.623-19.246-23.657-47.313-30-60h25.512c8.284 0 15-6.716 15-15s-6.716-15-15-15h-71.999c-8.284 0-15 6.716-15 15s6.716 15 15 15h12.947l20.42 40.84c-40.581-21.276-87.808-23.244-128.912-7.419-7.73 2.976-11.585 11.656-8.608 19.388s11.66 11.586 19.387 8.608c32.322-12.442 70.047-11.476 103.105 5.44l-16.822 25.154c9.171 4.269 17.567 9.929 24.916 16.71l23.389-34.972 45.626 91.251h-38.891c1.548 9.926 1.549 20.068 0 30 .171 0 63.002.003 63.173.003 4.655 0 9.085-2.043 12.462-6.672l85.873-128.583 12.489 34.372c8.682-4.787 18.163-8.294 28.188-10.27zm-71.371 247.396-30.097-60.195h32.018c5.011 0 9.691-2.502 12.474-6.669l58.711-87.912 10.663 29.345z"/></g></svg>