<svg id="Layer_1" enable-background="new 0 0 509.635 509.635" height="512" viewBox="0 0 509.635 509.635" width="512" xmlns="http://www.w3.org/2000/svg"><g><path d="m381.445 48.908-112.517 96.189h-18.22c-5.416 2.073-11.286 3.219-17.421 3.219-6.452 0-12.626-1.275-18.291-3.573-.279-.113-.56-.222-.836-.34-17.423-7.446-29.771-24.735-29.771-44.986 0-3.571.395-7.051 1.126-10.406l-40.685-79.284c-4.51-8.792-15.297-12.261-24.085-7.75-8.791 4.511-12.261 15.295-7.75 24.086l71.989 140.29v2.147l-22.955 179.108c-1.055 6.09 3.659 11.648 9.793 11.648h13.892v128.904c0 11.857 9.612 21.469 21.469 21.469s21.469-9.612 21.469-21.469v-128.903h25.339l57.423 137.193c4.599 10.987 17.204 16.074 28.094 11.515 10.938-4.578 16.093-17.156 11.516-28.094l-50.484-120.614h11.381c6.154 0 10.85-5.55 9.793-11.648l-40.302-165.738 123.284-105.765c7.511-6.421 8.394-17.714 1.974-25.225-6.419-7.51-17.714-8.394-25.225-1.973z"/><circle cx="233.287" cy="99.417" r="37.08"/><path d="m296.568 77.15c6.453 0 14.603-3.313 13.442-9.004v-42.835l32.18-11.263v34.522c-6.4-.514-15.391 2.146-15.391 7.949 0 4.436 6.067 8.032 13.551 8.032s13.551-3.596 13.551-8.032h.206v-49.79c0-4.631-4.573-7.876-8.945-6.346l-42.291 14.802c-2.862 1.001-4.778 3.702-4.778 6.734v39.222c-6.27-.418-15.076 2.25-15.076 7.978 0 4.435 6.067 8.031 13.551 8.031z"/><path d="m432.944 168.596v44.284c-6.269-.418-15.076 2.25-15.076 7.978 0 4.436 6.067 8.032 13.551 8.032 6.453 0 14.603-3.313 13.442-9.004v-42.836l9.344-3.27c6.212-2.174 9.485-8.973 7.31-15.184z"/><path d="m40.353 93.802v44.283c-6.27-.416-15.076 2.25-15.076 7.978 0 4.436 6.067 8.032 13.551 8.032 6.453 0 14.602-3.313 13.442-9.004v-42.835l9.344-3.27c6.212-2.174 9.485-8.972 7.311-15.184z"/><path d="m436.386 25.512c3.628 1.978 6.612 4.962 8.59 8.59.766 1.405 2.796 1.405 3.562 0 1.978-3.627 4.962-6.612 8.59-8.59 1.405-.766 1.405-2.796 0-3.562-3.628-1.977-6.613-4.962-8.59-8.59-.766-1.405-2.796-1.405-3.562 0-1.978 3.627-4.962 6.613-8.59 8.59-1.405.765-1.405 2.796 0 3.562z"/><path d="m28.04 81.733c1.977-3.628 4.962-6.613 8.59-8.59 1.405-.766 1.405-2.796 0-3.562-3.628-1.978-6.613-4.962-8.59-8.59-.766-1.405-2.796-1.405-3.562 0-1.978 3.627-4.962 6.612-8.59 8.59-1.405.766-1.405 2.796 0 3.562 3.628 1.977 6.613 4.962 8.59 8.59.766 1.405 2.796 1.405 3.562 0z"/><path d="m480.746 69.159c-2.841-1.548-5.178-3.886-6.727-6.727-.6-1.1-2.19-1.1-2.79 0-1.549 2.841-3.886 5.179-6.727 6.727-1.1.6-1.1 2.19 0 2.79 2.841 1.549 5.178 3.886 6.727 6.727.6 1.1 2.19 1.1 2.79 0 1.549-2.841 3.886-5.178 6.727-6.727 1.1-.6 1.1-2.19 0-2.79z"/><path d="m81.551 44.686c-2.841-1.548-5.178-3.886-6.727-6.727-.6-1.1-2.19-1.1-2.789 0-1.549 2.841-3.886 5.179-6.727 6.727-1.1.6-1.1 2.19 0 2.79 2.841 1.549 5.178 3.886 6.727 6.727.6 1.1 2.19 1.1 2.789 0 1.549-2.841 3.886-5.178 6.727-6.727 1.1-.6 1.1-2.19 0-2.79z"/><path d="m494.213 30.315c-2.024-1.103-3.689-2.768-4.792-4.792-.427-.784-1.56-.784-1.987 0-1.103 2.023-2.768 3.688-4.792 4.792-.784.427-.784 1.56 0 1.987 2.023 1.103 3.689 2.768 4.792 4.792.427.784 1.56.784 1.987 0 1.103-2.023 2.768-3.689 4.792-4.792.784-.428.784-1.56 0-1.987z"/><path d="m27.384 31.143c2.024 1.103 3.689 2.768 4.792 4.792.427.784 1.56.784 1.987 0 1.103-2.023 2.768-3.688 4.792-4.792.784-.427.784-1.56 0-1.987-2.024-1.103-3.689-2.768-4.792-4.792-.427-.783-1.56-.783-1.987 0-1.103 2.024-2.768 3.689-4.792 4.792-.783.427-.783 1.56 0 1.987z"/></g></svg>