<svg id="Solid" height="512" viewBox="0 0 512 512" width="512" xmlns="http://www.w3.org/2000/svg"><path d="m368 43.313v36.687h36.687z"/><path d="m352 88v-56h-256v448h320v-384h-56a8 8 0 0 1 -8-8zm-224-24h88a8 8 0 0 1 0 16h-88a8 8 0 0 1 0-16zm0 32h120a8 8 0 0 1 0 16h-120a8 8 0 0 1 0-16zm56 288h-56a8 8 0 0 1 0-16h56a8 8 0 0 1 0 16zm72 0h-40a8 8 0 0 1 0-16h40a8 8 0 0 1 0 16zm128 64h-40a8 8 0 0 1 0-16h40a8 8 0 0 1 0 16zm0-32h-88a8 8 0 0 1 0-16h88a8 8 0 0 1 0 16zm-49.9-207.763a8 8 0 0 1 1.9-.237h48a8 8 0 0 1 0 16h-40.741a95.259 95.259 0 0 1 5.7 16h35.041a8 8 0 0 1 0 16h-32.336c.219 2.639.336 5.306.336 8s-.117 5.361-.336 8h32.336a8 8 0 0 1 0 16h-35.037a95.259 95.259 0 0 1 -5.7 16h40.737a8 8 0 0 1 0 16h-50.073a96.78 96.78 0 0 1 -14.5 16h48.573a8 8 0 0 1 0 16h-72a8.02 8.02 0 0 1 -1.369-.125 95.9 95.9 0 0 1 -77.262 0 8.02 8.02 0 0 1 -1.369.125h-88a8 8 0 0 1 0-16h64.577a96.775 96.775 0 0 1 -14.677-16.237 8 8 0 0 1 -1.9.237h-48a8 8 0 0 1 0-16h40.741a95.259 95.259 0 0 1 -5.7-16h-35.041a8 8 0 0 1 0-16h32.336c-.219-2.639-.336-5.306-.336-8s.117-5.361.336-8h-32.336a8 8 0 0 1 0-16h35.037a95.259 95.259 0 0 1 5.7-16h-40.737a8 8 0 0 1 0-16h50.073a96.78 96.78 0 0 1 14.5-16h-64.573a8 8 0 0 1 0-16h89.655a95.9 95.9 0 0 1 76.69 0h89.655a8 8 0 0 1 0 16h-64.577a96.775 96.775 0 0 1 14.677 16.237zm57.9-56.237a8 8 0 0 1 -8 8h-208a8 8 0 0 1 0-16h208a8 8 0 0 1 8 8z"/><path d="m256 184a80 80 0 1 0 80 80 80.091 80.091 0 0 0 -80-80zm17 119.21a8 8 0 0 1 -10.676-3.743l-9.354-19.467h-28.4l-9.359 19.467a8 8 0 0 1 -14.42-6.934l30.769-64a8 8 0 0 1 14.42 0l30.77 64a8 8 0 0 1 -3.745 10.677zm47-47.21a8 8 0 0 1 -8 8h-8v8a8 8 0 0 1 -16 0v-8h-8a8 8 0 0 1 0-16h8v-8a8 8 0 0 1 16 0v8h8a8 8 0 0 1 8 8z"/><path d="m232.261 264h13.016l-6.508-13.537z"/></svg>