<svg id="Capa_1" enable-background="new 0 0 512.268 512.268" height="512" viewBox="0 0 512.268 512.268" width="512" xmlns="http://www.w3.org/2000/svg"><g><g><path d="m241.953 185.519-152.58 152.57c-23.354 23.355-23.477 61.383 0 84.86 23.924 23.924 61.89 22.951 84.86 0l152.57-152.58zm-25.3 131.36c-5.85 5.86-15.35 5.86-21.21 0s-5.86-15.36 0-21.21l21.21-21.22c5.86-5.85 15.36-5.85 21.22 0 5.85 5.86 5.85 15.36 0 21.22z"/></g><path d="m470.143 189.159-146.98-146.99c-11.65 15.55-18.42 33.63-20.31 52.12l115.17 115.17c18.979-1.935 36.959-8.939 52.12-20.3z"/><path d="m481.513 30.809c-37.34-37.34-96.04-40.62-137.13-9.85l146.98 146.99c30.77-41.09 27.49-99.8-9.85-137.14z"/><path d="m369.231 270.371c5.858 5.858 15.356 5.857 21.213 0l12.426-12.426c5.858-5.858 5.858-15.355 0-21.213l-127.279-127.28c-5.857-5.857-15.359-5.854-21.213 0l-12.426 12.427c-5.858 5.858-5.858 15.355 0 21.213z"/><path d="m137.343 90.059h35.65l-19.15 38.29c-3.7 7.41-.7 16.42 6.71 20.13 7.42 3.71 16.43.69 20.13-6.71l30-60c5.04-10.09-2.49-21.71-13.42-21.71h-35.73l19.15-38.29c3.7-7.41.7-16.42-6.71-20.13-7.41-3.7-16.42-.7-20.13 6.71l-30 60c-4.9 9.81 2.17 21.78 13.5 21.71z"/><path d="m510.683 338.349c-3.71-7.41-12.72-10.41-20.13-6.71l-38.29 19.15v-35.73c0-11.14-11.82-18.36-21.71-13.42l-60 30c-7.41 3.71-10.41 12.72-6.71 20.13 3.71 7.41 12.72 10.41 20.13 6.71l38.29-19.15v35.73c0 10.99 11.64 18.46 21.71 13.42l60-30c7.41-3.71 10.41-12.72 6.71-20.13z"/><g><path d="m79.643 453.899-53.77 53.77c-13.84 13.83-35.43-7-21.22-21.22l53.79-53.78c5.805 8.179 13.078 15.414 21.2 21.23z"/></g></g></svg>