<svg id="Capa_1" enable-background="new 0 0 512 512" height="512" viewBox="0 0 512 512" width="512" xmlns="http://www.w3.org/2000/svg"><g><path d="m196 126c-55.14 0-100 44.86-100 100s44.86 100 100 100 100-44.86 100-100-44.86-100-100-100zm79.353 90h-39.534c-.861-23.989-4.837-47.937-12.228-65.094 27.549 10.154 47.998 35.065 51.762 65.094zm-79.353 90c-.858 0-6.351-3.394-11.727-19.521-4.553-13.658-7.352-31.308-8.078-50.479l39.609-.01c-.725 19.171-3.525 36.831-8.078 50.489-5.375 16.127-10.868 19.521-11.726 19.521zm-19.805-90c.725-19.171 3.525-36.821 8.078-50.479 5.376-16.128 10.869-19.521 11.727-19.521s6.351 3.394 11.727 19.521c4.553 13.658 7.352 31.308 8.078 50.479zm-7.785-65.094c-7.391 17.156-11.367 41.105-12.228 65.094h-39.534c3.763-30.029 24.212-54.94 51.762-65.094zm-51.763 85.094h39.534c.861 23.989 4.837 47.937 12.228 65.094-27.549-10.155-47.998-35.066-51.762-65.094zm106.943 65.093c7.391-17.156 11.367-41.115 12.228-65.104l39.534.01c-3.763 30.029-24.212 54.94-51.762 65.094z"/><path d="m413.071 308.928-24.749-24.749 14.139-14.139c4.994-4.995 3.369-13.477-3.132-16.263l-74.24-31.82c-3.758-1.61-8.118-.771-11.011 2.12-2.891 2.892-3.731 7.252-2.12 11.011l31.82 74.24c2.797 6.526 11.282 8.113 16.263 3.132l14.139-14.139 24.749 24.749c3.905 3.905 10.237 3.905 14.143 0 3.904-3.904 3.904-10.236-.001-14.142zm-56.728-21.053-16.152-37.685 37.685 16.152-10.762 10.762c-.002.002-.003.003-.005.005s-.003.003-.005.005z"/><circle cx="256" cy="436" r="10"/><path d="m502 366h-20v-290c0-5.523-4.477-10-10-10h-432c-5.523 0-10 4.477-10 10v290h-20c-5.523 0-10 4.477-10 10 0 38.598 31.402 70 70 70h141c5.523 0 10-4.477 10-10s-4.477-10-10-10h-141c-24.146 0-44.349-17.206-48.996-40.01h469.991c-4.646 22.804-24.849 40.01-48.995 40.01h-141c-5.523 0-10 4.477-10 10s4.477 10 10 10h141c38.598 0 70-31.402 70-70 0-5.523-4.477-10-10-10zm-452-280h412v280h-412z"/></g></svg>